<svg width="262" height="75" viewBox="0 0 262 75" fill="none" xmlns="http://www.w3.org/2000/svg">
<path d="M47.864 66.824C45.432 66.824 43.672 66.44 42.584 65.672C41.496 64.904 40.856 64.072 40.664 63.176C40.408 62.28 40.28 61.608 40.28 61.16C40.344 60.328 40.728 59.656 41.432 59.144C42.072 58.632 42.808 58.376 43.64 58.376C44.152 58.376 44.6 58.504 44.984 58.76C45.368 58.952 45.56 59.4 45.56 60.104C45.56 60.744 45.336 61.192 44.888 61.448C44.44 61.704 43.96 61.832 43.448 61.832C43 61.832 42.616 61.768 42.296 61.64C41.912 61.512 41.72 61.448 41.72 61.448C41.72 63.176 42.36 64.328 43.64 64.904C44.92 65.48 46.36 65.768 47.96 65.768C50.456 65.768 53.016 65.064 55.64 63.656C58.328 62.248 61.08 60.392 63.896 58.088C66.712 55.72 69.592 53.096 72.536 50.216C75.544 47.272 78.616 44.328 81.752 41.384C85.144 38.184 88.504 35.016 91.832 31.88C95.224 28.68 98.488 25.8 101.624 23.24C104.76 20.68 107.672 18.632 110.36 17.096C113.048 15.56 115.448 14.792 117.56 14.792C118.264 14.792 118.552 14.92 118.424 15.176C118.36 15.432 117.848 15.624 116.888 15.752C114.648 16.136 112.184 17.16 109.496 18.824C106.872 20.424 104.088 22.504 101.144 25.064C98.2 27.56 95.16 30.312 92.024 33.32C88.952 36.264 85.816 39.24 82.616 42.248C79.672 45.064 76.696 47.912 73.688 50.792C70.744 53.672 67.8 56.328 64.856 58.76C61.976 61.192 59.096 63.144 56.216 64.616C53.4 66.088 50.616 66.824 47.864 66.824ZM77.432 62.504C77.048 62.632 76.6 62.728 76.088 62.792C75.64 62.792 75.512 62.632 75.704 62.312C75.896 61.992 76.248 61.448 76.76 60.68C77.336 59.848 77.848 58.856 78.296 57.704C78.808 56.552 79.064 55.368 79.064 54.152C79.064 52.552 78.776 50.728 78.2 48.68C77.688 46.568 76.824 44.52 75.608 42.536C74.456 40.552 72.888 38.92 70.904 37.64C68.984 36.296 66.616 35.624 63.8 35.624C61.944 35.624 60.344 36.072 59 36.968C57.72 37.864 56.728 38.952 56.024 40.232C55.384 41.448 55.064 42.632 55.064 43.784C55.064 46.28 55.8 48.648 57.272 50.888C58.808 53.128 61.112 54.952 64.184 56.36C67.256 57.704 71.064 58.376 75.608 58.376C80.6 58.376 85.08 57.512 89.048 55.784C93.016 54.056 96.344 51.816 99.032 49.064C101.72 46.312 103.608 43.432 104.696 40.424C105.016 39.464 105.272 39.144 105.464 39.464C105.72 39.72 105.848 39.976 105.848 40.232C105.848 42.408 105.112 44.616 103.64 46.856C102.168 49.096 100.088 51.176 97.4 53.096C94.712 54.952 91.608 56.456 88.088 57.608C84.568 58.76 80.728 59.336 76.568 59.336C72.28 59.336 68.312 58.728 64.664 57.512C61.08 56.296 58.168 54.504 55.928 52.136C53.752 49.768 52.664 46.92 52.664 43.592C52.664 41.352 53.592 39.304 55.448 37.448C57.368 35.528 60.152 34.568 63.8 34.568C66.872 34.568 69.432 35.272 71.48 36.68C73.592 38.088 75.288 39.816 76.568 41.864C77.848 43.912 78.776 45.96 79.352 48.008C79.928 50.056 80.216 51.752 80.216 53.096C80.216 54.568 80.024 56.04 79.64 57.512C79.256 58.92 78.84 60.104 78.392 61.064C78.008 61.96 77.688 62.44 77.432 62.504ZM71.768 66.632C71.832 66.568 72.472 65.8 73.688 64.328C74.904 62.856 76.504 60.904 78.488 58.472C80.472 56.04 82.712 53.32 85.208 50.312C87.704 47.24 90.296 44.104 92.984 40.904C95.672 37.704 98.296 34.6 100.856 31.592C103.48 28.52 105.88 25.768 108.056 23.336C110.296 20.84 112.152 18.856 113.624 17.384C115.16 15.912 116.152 15.144 116.6 15.08C116.92 14.952 117.208 14.952 117.464 15.08C117.72 15.208 117.656 15.432 117.272 15.752C117.016 15.944 116.12 17 114.584 18.92C113.048 20.776 111.096 23.24 108.728 26.312C106.424 29.32 103.896 32.648 101.144 36.296C98.456 39.88 95.768 43.464 93.08 47.048C90.392 50.568 87.928 53.832 85.688 56.84C83.512 59.784 81.72 62.152 80.312 63.944C78.968 65.736 78.264 66.632 78.2 66.632C77.944 66.568 77.496 66.504 76.856 66.44C76.28 66.376 75.704 66.344 75.128 66.344C74.552 66.344 73.88 66.376 73.112 66.44C72.408 66.568 71.96 66.632 71.768 66.632Z" fill="#EEB67E"/>
<path d="M122.776 69.824C121.944 70.208 121.464 70.24 121.336 69.92C121.208 69.664 121.4 69.408 121.912 69.152C122.232 68.96 122.808 68.544 123.64 67.904C124.408 67.264 125.016 66.72 125.464 66.272C127.064 64.8 128.664 62.848 130.264 60.416C131.864 57.984 133.56 55.264 135.352 52.256C137.208 49.184 139.192 46.08 141.304 42.944C143.288 39.936 145.4 37.024 147.64 34.208C149.88 31.392 152.024 28.896 154.072 26.72C156.184 24.48 157.944 22.816 159.352 21.728C159.672 21.472 159.832 21.504 159.832 21.824C159.832 22.08 159.704 22.432 159.448 22.88C159.256 23.264 159.032 23.552 158.776 23.744C158.584 23.872 157.816 24.448 156.472 25.472C155.192 26.496 153.592 27.68 151.672 29.024C149.816 30.304 147.864 31.456 145.816 32.48C143.832 33.44 142.008 33.92 140.344 33.92C139 33.92 137.944 33.568 137.176 32.864C136.472 32.16 136.12 31.296 136.12 30.272C136.12 29.248 136.472 28.224 137.176 27.2C137.944 26.112 138.776 25.088 139.672 24.128C140.632 23.104 141.464 22.144 142.168 21.248C142.936 20.352 143.32 19.584 143.32 18.944C143.32 18.048 142.904 17.408 142.072 17.024C141.24 16.576 139.992 16.352 138.328 16.352C136.984 16.352 135.64 16.608 134.296 17.12C133.016 17.632 131.896 18.208 130.936 18.848C129.976 19.488 129.336 20 129.016 20.384C128.632 20.768 128.28 20.864 127.96 20.672C127.64 20.48 127.704 20.128 128.152 19.616C128.92 18.784 130.296 17.92 132.28 17.024C134.264 16.064 136.28 15.584 138.328 15.584C140.248 15.584 142.008 15.84 143.608 16.352C145.208 16.864 146.008 18.016 146.008 19.808C146.008 21.216 145.624 22.528 144.856 23.744C144.152 24.896 143.32 25.984 142.36 27.008C141.4 27.968 140.536 28.832 139.768 29.6C139.064 30.304 138.712 30.944 138.712 31.52C138.712 32.032 138.872 32.416 139.192 32.672C139.512 32.864 140.024 32.96 140.728 32.96C142.136 32.96 143.704 32.512 145.432 31.616C147.16 30.72 148.888 29.632 150.616 28.352C152.408 27.008 154.104 25.664 155.704 24.32C157.368 22.912 158.84 21.696 160.12 20.672C161.464 19.584 162.52 18.912 163.288 18.656C163.608 18.528 163.832 18.56 163.96 18.752C164.152 18.88 164.088 19.104 163.768 19.424C163.256 19.808 162.552 20.256 161.656 20.768C160.76 21.28 160.152 21.856 159.832 22.496C159.128 23.84 157.976 25.888 156.376 28.64C154.84 31.328 152.952 34.432 150.712 37.952C148.536 41.472 146.072 45.12 143.32 48.896C140.632 52.608 137.784 56.16 134.776 59.552C131.768 62.944 128.664 65.856 125.464 68.288C124.952 68.672 124.664 68.64 124.6 68.192C124.536 67.744 124.728 67.392 125.176 67.136C129.464 64.512 133.944 61.568 138.616 58.304C143.288 55.04 147.928 51.648 152.536 48.128C157.208 44.544 161.624 41.024 165.784 37.568C169.944 34.048 173.624 30.784 176.824 27.776C180.024 24.704 182.552 22.016 184.408 19.712C186.264 17.344 187.192 15.584 187.192 14.432C187.192 14.048 187 13.696 186.616 13.376C186.232 13.056 185.88 12.896 185.56 12.896C184.664 12.896 183.576 13.248 182.296 13.952C181.08 14.656 179.864 15.744 178.648 17.216C177.496 18.624 176.504 20.416 175.672 22.592C174.904 24.768 174.52 27.328 174.52 30.272C174.52 32.384 175.032 34.048 176.056 35.264C177.08 36.416 178.2 37.152 179.416 37.472C180.696 37.792 181.656 37.76 182.296 37.376C182.744 37.056 183 37.056 183.064 37.376C183.128 37.632 182.968 37.92 182.584 38.24C182.072 38.624 181.304 38.752 180.28 38.624C179.256 38.496 178.168 38.144 177.016 37.568C175.928 36.928 174.968 36.032 174.136 34.88C173.368 33.728 172.984 32.288 172.984 30.56C172.984 27.616 173.432 25.024 174.328 22.784C175.288 20.48 176.472 18.528 177.88 16.928C179.288 15.328 180.664 14.112 182.008 13.28C183.416 12.448 184.6 12.032 185.56 12.032C186.52 12.032 187.224 12.32 187.672 12.896C188.184 13.408 188.44 14.048 188.44 14.816C188.44 16.672 187.448 18.944 185.464 21.632C183.544 24.256 180.92 27.168 177.592 30.368C174.328 33.504 170.648 36.768 166.552 40.16C162.456 43.488 158.232 46.752 153.88 49.952C149.528 53.088 145.304 56.032 141.208 58.784C137.176 61.472 133.528 63.808 130.264 65.792C127.064 67.712 124.568 69.056 122.776 69.824Z" fill="#EEB67E"/>
<path d="M111.272 65.48C108.659 62.6987 106.671 60.272 105.308 58.2C104.132 58.5173 103.18 58.9373 102.452 59.46C101.724 59.9827 101.332 60.8973 101.276 62.204C101.145 65.5827 103.161 67.16 107.324 66.936C109.023 66.8427 110.339 66.3573 111.272 65.48ZM107.128 55.96C108.099 55.68 108.845 55.4093 109.368 55.148C109.909 54.8867 110.292 54.644 110.516 54.42C110.553 54.364 110.572 54.308 110.572 54.252C111.039 52.684 111.02 51.5453 110.516 50.836C110.012 50.1267 108.985 49.8373 107.436 49.968C106.521 50.0427 105.821 50.2107 105.336 50.472C105.187 50.9013 105.233 51.5827 105.476 52.516C105.756 53.524 106.307 54.672 107.128 55.96ZM112.84 63.072C113.4 61.8213 113.82 60.3093 114.1 58.536C114.137 58.312 114.268 58.0507 114.492 57.752C114.735 57.4533 114.996 57.22 115.276 57.052C115.575 56.8653 115.817 56.7907 116.004 56.828C116.191 56.8467 116.265 56.968 116.228 57.192C115.78 59.9733 114.977 62.2787 113.82 64.108C114.716 65.0413 115.659 66.012 116.648 67.02C116.76 67.132 116.76 67.328 116.648 67.608C116.536 67.8693 116.34 68.1307 116.06 68.392C115.799 68.672 115.528 68.868 115.248 68.98C114.968 69.092 114.781 69.092 114.688 68.98C113.755 68.0467 112.868 67.1507 112.028 66.292C110.255 68.0093 108.201 68.9333 105.868 69.064C101.257 69.3253 99.0173 67.5427 99.148 63.716C99.1853 62.6893 99.484 61.6627 100.044 60.636C100.921 59.0307 102.396 57.7613 104.468 56.828C103.74 55.54 103.301 54.5507 103.152 53.86C103.003 53.1507 102.984 52.544 103.096 52.04C103.227 51.536 103.46 51.032 103.796 50.528C104.449 49.576 105.205 48.9133 106.064 48.54C106.923 48.1667 107.865 47.9333 108.892 47.84C110.684 47.6907 111.897 48.064 112.532 48.96C113.185 49.8373 113.223 51.228 112.644 53.132C112.364 54.0093 111.785 54.8213 110.908 55.568C110.031 56.3147 109.079 56.9027 108.052 57.332C109.265 59.012 110.861 60.9253 112.84 63.072Z" fill="#EEB67E"/>
<path d="M156.65 68.75L153.025 68.6C152.875 68.6 152.717 68.6 152.55 68.6C152.4 68.5833 152.242 68.575 152.075 68.575C151.408 68.575 150.733 68.5917 150.05 68.625C149.367 68.6583 148.683 68.675 148 68.675L148.275 68.25C148.558 68.2667 148.825 68.2833 149.075 68.3C149.325 68.3 149.558 68.3 149.775 68.3C150.392 68.3 150.942 68.2 151.425 68C151.925 67.7833 152.433 67.3083 152.95 66.575C153.233 66.1917 153.583 65.6667 154 65C154.417 64.3167 154.858 63.5917 155.325 62.825C155.075 62.8083 154.842 62.8 154.625 62.8C154.408 62.8 154.2 62.8 154 62.8C153.717 62.8 153.417 62.8083 153.1 62.825C152.783 62.825 152.425 62.8417 152.025 62.875H151.75C151.55 62.875 151.45 62.85 151.45 62.8C151.45 62.7167 151.567 62.625 151.8 62.525C152.033 62.4083 152.217 62.3333 152.35 62.3C152.8 62.2167 153.308 62.1583 153.875 62.125C154.458 62.0917 155.108 62.0583 155.825 62.025C156.342 61.1583 156.842 60.3083 157.325 59.475C157.825 58.625 158.258 57.875 158.625 57.225C159.008 56.5583 159.275 56.0667 159.425 55.75C159.525 55.5333 159.608 55.325 159.675 55.125C159.742 54.9083 159.775 54.7 159.775 54.5C159.775 54.2167 159.683 53.9917 159.5 53.825C159.333 53.6417 159.008 53.5417 158.525 53.525C158.225 53.525 157.892 53.5333 157.525 53.55C157.158 53.5667 156.825 53.5833 156.525 53.6L156.675 53.175C157.308 53.2083 157.875 53.2333 158.375 53.25C158.875 53.2667 159.308 53.275 159.675 53.275C159.925 53.275 160.15 53.275 160.35 53.275C160.55 53.2583 160.717 53.25 160.85 53.25C161.217 53.2333 161.567 53.225 161.9 53.225C162.233 53.225 162.592 53.2167 162.975 53.2C163.158 53.2 163.242 53.3167 163.225 53.55C163.225 53.7667 163.233 54.05 163.25 54.4C163.4 56.3167 163.567 58.1667 163.75 59.95C163.95 61.7333 164.225 63.5667 164.575 65.45C164.742 66.2833 164.958 66.9083 165.225 67.325C165.492 67.725 165.775 67.9917 166.075 68.125C166.392 68.2417 166.692 68.3 166.975 68.3C167.092 68.3 167.2 68.3 167.3 68.3C167.4 68.2833 167.492 68.275 167.575 68.275L167.35 68.675C167.1 68.6583 166.883 68.65 166.7 68.65C166.517 68.65 166.35 68.65 166.2 68.65C165.833 68.65 165.55 68.6583 165.35 68.675C165.167 68.6917 164.933 68.6917 164.65 68.675C163.783 68.625 162.942 68.6 162.125 68.6C161.408 68.6 160.675 68.625 159.925 68.675L160.175 68.275C160.408 68.275 160.692 68.275 161.025 68.275C161.358 68.2583 161.65 68.1833 161.9 68.05C162.167 67.9167 162.3 67.6667 162.3 67.3C162.3 66.8833 162.267 66.2917 162.2 65.525C162.133 64.7583 162.042 63.9083 161.925 62.975C161.808 62.025 161.683 61.0833 161.55 60.15C161.433 59.2167 161.317 58.375 161.2 57.625C161.083 56.8583 160.983 56.2833 160.9 55.9C160.25 56.9167 159.617 57.9333 159 58.95C158.383 59.95 157.775 60.95 157.175 61.95L158.575 61.875C158.958 61.8583 159.367 61.825 159.8 61.775C160.233 61.7083 160.617 61.6417 160.95 61.575C161.283 61.4917 161.492 61.4167 161.575 61.35C161.608 61.3167 161.642 61.3 161.675 61.3C161.742 61.3 161.733 61.3667 161.65 61.5C161.533 61.7333 161.308 61.9583 160.975 62.175C160.658 62.3917 160.383 62.5583 160.15 62.675C159.85 62.8083 159.542 62.875 159.225 62.875C158.925 62.875 158.608 62.875 158.275 62.875C157.958 62.875 157.667 62.875 157.4 62.875C157.15 62.8583 156.908 62.85 156.675 62.85C156.425 63.2833 156.183 63.7167 155.95 64.15C155.717 64.5833 155.483 65.0167 155.25 65.45C155.033 65.8667 154.875 66.225 154.775 66.525C154.675 66.825 154.625 67.0833 154.625 67.3C154.625 67.75 154.792 68.0417 155.125 68.175C155.458 68.2917 155.817 68.35 156.2 68.35C156.333 68.35 156.458 68.35 156.575 68.35C156.708 68.3333 156.833 68.325 156.95 68.325L156.65 68.75ZM169.175 67.9C169.325 67.2333 169.517 66.4333 169.75 65.5C170 64.55 170.292 63.5917 170.625 62.625C170.959 61.6417 171.334 60.75 171.75 59.95C172.167 59.1333 172.617 58.525 173.1 58.125C173.4 57.8583 173.75 57.6917 174.15 57.625C174.55 57.5583 174.959 57.5167 175.375 57.5C175.759 57.4667 176.15 57.425 176.55 57.375C176.967 57.325 177.342 57.1917 177.675 56.975L177.925 57.1L176.275 59.125C175.909 59.3583 175.559 59.5083 175.225 59.575C174.892 59.625 174.584 59.6667 174.3 59.7C174.034 59.7167 173.767 59.7333 173.5 59.75C173.234 59.75 172.984 59.8167 172.75 59.95C172.434 60.1167 172.117 60.45 171.8 60.95C171.484 61.45 171.159 62.225 170.825 63.275C170.492 64.325 170.134 65.7667 169.75 67.6L169.175 67.9ZM166.675 69.25C166.892 68.3167 167.142 67.3333 167.425 66.3C167.709 65.25 167.967 64.25 168.2 63.3C168.4 62.5167 168.559 61.8 168.675 61.15C168.809 60.4833 168.875 59.9417 168.875 59.525C168.875 59.4417 168.875 59.3667 168.875 59.3C168.875 59.2167 168.867 59.1417 168.85 59.075C168.784 59.0917 168.709 59.125 168.625 59.175C168.559 59.2083 168.484 59.2417 168.4 59.275L167.525 59.725L167.45 59.325C167.984 59.0417 168.567 58.6917 169.2 58.275C169.85 57.8583 170.392 57.5 170.825 57.2C170.942 57.3833 171 57.6833 171 58.1C171 58.55 170.942 59.1083 170.825 59.775C170.709 60.425 170.559 61.125 170.375 61.875C170.125 62.9583 169.85 64.0833 169.55 65.25C169.25 66.4 168.992 67.4417 168.775 68.375L166.675 69.25ZM178.429 68.875C177.796 68.875 177.179 68.7833 176.579 68.6C175.996 68.4 175.587 68.0583 175.354 67.575C175.187 67.225 175.104 66.7333 175.104 66.1C175.104 65.5167 175.162 64.8917 175.279 64.225C175.396 63.5583 175.537 62.9083 175.704 62.275C175.887 61.6417 176.054 61.1167 176.204 60.7C176.421 60.1167 176.762 59.5667 177.229 59.05C177.696 58.5333 178.312 58.125 179.079 57.825C179.362 57.7083 179.729 57.6083 180.179 57.525C180.646 57.4417 181.121 57.4 181.604 57.4C182.254 57.4 182.871 57.5 183.454 57.7C184.037 57.8833 184.454 58.225 184.704 58.725C184.871 59.0583 184.954 59.5333 184.954 60.15C184.954 60.7167 184.887 61.3417 184.754 62.025C184.637 62.7083 184.496 63.3667 184.329 64C184.162 64.6167 183.996 65.1417 183.829 65.575C183.612 66.1417 183.271 66.6917 182.804 67.225C182.337 67.7417 181.721 68.15 180.954 68.45C180.671 68.5667 180.296 68.6667 179.829 68.75C179.379 68.8333 178.912 68.875 178.429 68.875ZM178.804 68.3C179.187 68.3 179.654 68.175 180.204 67.925C180.687 67.6917 181.071 67.3167 181.354 66.8C181.654 66.2833 181.887 65.7167 182.054 65.1C182.221 64.4833 182.354 63.925 182.454 63.425C182.537 63.0083 182.612 62.55 182.679 62.05C182.746 61.55 182.779 61.0583 182.779 60.575C182.779 59.875 182.671 59.275 182.454 58.775C182.237 58.2583 181.829 58 181.229 58C180.862 58 180.404 58.125 179.854 58.375C179.387 58.5917 179.004 58.9667 178.704 59.5C178.404 60.0167 178.171 60.5833 178.004 61.2C177.837 61.8 177.704 62.35 177.604 62.85C177.521 63.2667 177.437 63.7333 177.354 64.25C177.287 64.75 177.254 65.2417 177.254 65.725C177.254 66.425 177.362 67.0333 177.579 67.55C177.796 68.05 178.204 68.3 178.804 68.3ZM186.008 69.35C186.158 68.4167 186.35 67.425 186.583 66.375C186.833 65.3083 187.042 64.3 187.208 63.35C187.342 62.6667 187.442 62.025 187.508 61.425C187.592 60.825 187.633 60.3167 187.633 59.9C187.633 59.6167 187.608 59.375 187.558 59.175C187.558 59.175 187.45 59.2167 187.233 59.3C187.033 59.3667 186.8 59.45 186.533 59.55C186.283 59.65 186.067 59.75 185.883 59.85L186.033 59.35C186.567 59.0833 187.15 58.7583 187.783 58.375C188.433 57.975 188.967 57.625 189.383 57.325C189.517 57.5417 189.583 57.9833 189.583 58.65C189.583 59.4167 189.5 60.3583 189.333 61.475C189.183 62.575 189.008 63.65 188.808 64.7C188.942 64.4333 189.083 64.175 189.233 63.925C189.4 63.6583 189.558 63.3917 189.708 63.125C189.842 62.9083 190.058 62.575 190.358 62.125C190.675 61.675 191.042 61.1833 191.458 60.65C191.875 60.1 192.3 59.575 192.733 59.075C193.183 58.575 193.608 58.1667 194.008 57.85C194.425 57.5167 194.775 57.3417 195.058 57.325C195.175 57.5417 195.233 57.8833 195.233 58.35C195.233 58.6167 195.217 58.9333 195.183 59.3C195.15 59.65 195.1 60.0167 195.033 60.4C194.933 61.05 194.783 61.75 194.583 62.5C194.383 63.2333 194.208 63.9583 194.058 64.675C194.358 64.125 194.742 63.5417 195.208 62.925C195.675 62.3083 196.183 61.7083 196.733 61.125C197.3 60.5417 197.867 60.0083 198.433 59.525C199.017 59.0417 199.567 58.6583 200.083 58.375C200.483 58.1417 200.942 57.925 201.458 57.725C201.992 57.525 202.475 57.3417 202.908 57.175L203.008 57.4L202.633 57.55C202.25 57.7167 201.892 58.05 201.558 58.55C201.225 59.05 200.917 59.6417 200.633 60.325C200.367 61.0083 200.125 61.725 199.908 62.475C199.708 63.2083 199.542 63.9167 199.408 64.6C199.275 65.2667 199.175 65.825 199.108 66.275C199.642 65.4917 200.267 64.7 200.983 63.9C201.7 63.0833 202.4 62.4417 203.083 61.975L203.258 62.25C202.975 62.4333 202.608 62.7667 202.158 63.25C201.725 63.7333 201.283 64.2833 200.833 64.9C200.383 65.5167 199.992 66.125 199.658 66.725C199.325 67.3083 199.133 67.8083 199.083 68.225L197.108 69.225C197.092 69.125 197.075 69.0167 197.058 68.9C197.058 68.7667 197.058 68.6417 197.058 68.525C197.058 67.925 197.117 67.225 197.233 66.425C197.367 65.625 197.533 64.8 197.733 63.95C197.933 63.1 198.15 62.3 198.383 61.55C198.617 60.7833 198.842 60.1417 199.058 59.625C198.725 59.8917 198.325 60.275 197.858 60.775C197.408 61.2583 196.942 61.825 196.458 62.475C195.975 63.1083 195.508 63.775 195.058 64.475C194.625 65.1583 194.258 65.8417 193.958 66.525C193.658 67.1917 193.467 67.8 193.383 68.35L191.383 69.275C191.533 68.375 191.717 67.4333 191.933 66.45C192.167 65.4667 192.375 64.5167 192.558 63.6C192.708 62.8667 192.833 62.1583 192.933 61.475C193.05 60.7917 193.108 60.2917 193.108 59.975C193.108 59.8083 193.1 59.7083 193.083 59.675C192.467 60.175 191.875 60.825 191.308 61.625C190.742 62.425 190.225 63.275 189.758 64.175C189.308 65.0583 188.925 65.8833 188.608 66.65C188.292 67.4 188.083 67.9917 187.983 68.425L186.008 69.35ZM211.493 58.45C210.96 58.5 210.518 58.45 210.168 58.3C209.818 58.15 209.426 58.075 208.993 58.075C208.743 58.075 208.468 58.125 208.168 58.225L208.093 57.95C208.493 57.75 208.918 57.5667 209.368 57.4C209.835 57.2333 210.276 57.15 210.693 57.15C210.96 57.15 211.218 57.175 211.468 57.225C211.718 57.275 211.976 57.325 212.243 57.375C212.426 57.3917 212.61 57.4167 212.793 57.45C212.976 57.4667 213.168 57.475 213.368 57.475C213.518 57.475 213.676 57.4667 213.843 57.45C214.026 57.4333 214.21 57.4083 214.393 57.375L214.493 57.55C214.493 57.55 214.36 57.5917 214.093 57.675C213.843 57.7583 213.535 57.8583 213.168 57.975C212.801 58.0917 212.46 58.2 212.143 58.3C211.826 58.3833 211.61 58.4333 211.493 58.45ZM208.393 69.25C208.376 69.1667 208.368 69.0667 208.368 68.95C208.368 68.8333 208.368 68.7083 208.368 68.575C208.368 68.075 208.401 67.4667 208.468 66.75C208.551 66.0333 208.66 65.3 208.793 64.55C208.926 63.7833 209.076 63.0833 209.243 62.45C209.576 61.3167 209.926 60.45 210.293 59.85C210.676 59.25 211.243 58.8167 211.993 58.55C212.076 58.5167 212.226 58.4667 212.443 58.4C212.676 58.3167 212.918 58.225 213.168 58.125C213.418 58.025 213.635 57.9417 213.818 57.875C214.001 57.8083 214.093 57.775 214.093 57.775L214.193 58L213.518 58.3C213.218 58.4333 212.91 58.7083 212.593 59.125C212.276 59.525 211.985 60 211.718 60.55C211.451 61.0833 211.243 61.625 211.093 62.175C210.926 62.8417 210.785 63.5417 210.668 64.275C210.551 64.9917 210.46 65.6667 210.393 66.3C210.76 65.7833 211.16 65.2583 211.593 64.725C212.026 64.175 212.476 63.6667 212.943 63.2C213.426 62.7167 213.893 62.325 214.343 62.025L214.543 62.275C214.126 62.525 213.693 62.925 213.243 63.475C212.793 64.025 212.36 64.6167 211.943 65.25C211.543 65.8833 211.201 66.475 210.918 67.025C210.635 67.575 210.451 67.9917 210.368 68.275L208.393 69.25ZM202.568 69.25C202.551 69.1667 202.543 69.0667 202.543 68.95C202.543 68.8333 202.543 68.7083 202.543 68.575C202.543 68.075 202.576 67.4667 202.643 66.75C202.726 66.0333 202.835 65.3 202.968 64.55C203.101 63.7833 203.251 63.0833 203.418 62.45C203.751 61.3 204.135 60.4333 204.568 59.85C205.018 59.25 205.618 58.8167 206.368 58.55C206.535 58.5 206.76 58.425 207.043 58.325C207.326 58.2083 207.601 58.1083 207.868 58.025L207.968 58.3L207.243 58.675C206.943 58.8417 206.618 59.2583 206.268 59.925C205.918 60.5917 205.626 61.3417 205.393 62.175C205.26 62.7083 205.126 63.2667 204.993 63.85C204.876 64.4333 204.776 65 204.693 65.55C204.693 65.5833 204.718 65.6 204.768 65.6C204.851 65.6 204.968 65.5667 205.118 65.5C205.268 65.4333 205.351 65.3917 205.368 65.375C205.551 65.2583 205.768 65.1083 206.018 64.925C206.285 64.725 206.551 64.5 206.818 64.25C207.368 63.75 207.876 63.1917 208.343 62.575C208.826 61.9417 209.126 61.3417 209.243 60.775C209.243 60.7417 209.293 60.7333 209.393 60.75C209.51 60.75 209.568 60.75 209.568 60.75C209.451 61.4833 209.126 62.1917 208.593 62.875C208.06 63.5583 207.501 64.2167 206.918 64.85C206.651 65.1333 206.376 65.425 206.093 65.725C205.826 66.0083 205.576 66.3167 205.343 66.65C205.126 66.9333 204.951 67.2083 204.818 67.475C204.701 67.7417 204.643 68 204.643 68.25L202.568 69.25Z" fill="#EEB67E"/>
<line y1="74.5" x2="262" y2="74.5" stroke="#FFA966"/>
</svg>
